<?xml version="1.0" encoding="utf-8"?>
<!-- Generator: Adobe Illustrator 23.0.0, SVG Export Plug-In . SVG Version: 6.00 Build 0)  -->
<svg version="1.1" id="Layer_1" xmlns="http://www.w3.org/2000/svg" xmlns:xlink="http://www.w3.org/1999/xlink" x="0px" y="0px"
	 viewBox="0 0 469.3 469.3" style="enable-background:new 0 0 469.3 469.3;" xml:space="preserve">
<style type="text/css">
	.st0{fill:#FFFFFF;}
	.st1{fill:#475059;}
	.st2{fill:#B1E1ED;}
	.st3{fill:#FFDA7B;}
	.st4{fill:#E15D34;}
</style>
<g>
	<rect x="85.7" y="149.4" class="st0" width="232.9" height="232.9"/>
	<g>
		<g>
			<rect x="85.7" y="305.6" class="st1" width="161.7" height="13.7"/>
		</g>
		<g>
			<rect x="85.7" y="228" class="st1" width="161.7" height="13.7"/>
		</g>
	</g>
	<rect x="231.1" y="95.1" class="st2" width="232.9" height="341.5"/>
	<path class="st3" d="M163.8,265.9c0,43.1-35,78.1-78.1,78.1S7.6,309,7.6,265.9c0-43.1,35-78.1,78.1-78.1S163.8,222.7,163.8,265.9z"
		/>
	<g>
		<path class="st1" d="M78.1,323.6c-3.1,0-6-1.4-8-3.9l-33.4-42.3c-3.5-4.4-2.7-10.8,1.7-14.2c4.4-3.5,10.8-2.7,14.2,1.7l24.2,30.7
			l41.1-70.4c2.8-4.8,9-6.5,13.9-3.6c4.8,2.8,6.5,9,3.6,13.9l-48.6,83.2c-1.7,2.9-4.7,4.8-8.1,5C78.6,323.6,78.3,323.6,78.1,323.6z"
			/>
	</g>
	<path class="st1" d="M168.9,75.7L131,37.8c-4.3-4.3-11.2-4.3-15.5,0c-4.3,4.3-4.3,11.2,0,15.5l37.9,37.9L123.6,121l75.3,0l0-75.3
		L168.9,75.7z"/>
	<rect x="246.7" y="110.7" class="st0" width="65.3" height="65.3"/>
	<rect x="246.7" y="192.4" class="st4" width="65.3" height="65.3"/>
	<rect x="246.7" y="274" class="st0" width="65.3" height="65.3"/>
	<rect x="246.7" y="355.7" class="st4" width="65.3" height="65.3"/>
	<g>
		<path class="st1" d="M446.3,132.4c0-3-2.5-5.5-5.5-5.5h-99.5c-3,0-5.5,2.5-5.5,5.5c0,3,2.5,5.5,5.5,5.5h99.5
			C443.8,137.9,446.3,135.5,446.3,132.4z"/>
		<path class="st0" d="M440.8,148.9h-63.9c-3,0-5.5,2.5-5.5,5.5c0,3,2.5,5.5,5.5,5.5h63.9c3,0,5.5-2.5,5.5-5.5
			C446.3,151.3,443.8,148.9,440.8,148.9z"/>
	</g>
	<g>
		<path class="st1" d="M446.3,214.1c0-3-2.5-5.5-5.5-5.5h-99.5c-3,0-5.5,2.5-5.5,5.5c0,3,2.5,5.5,5.5,5.5h99.5
			C443.8,219.6,446.3,217.1,446.3,214.1z"/>
		<path class="st4" d="M440.8,230.5h-63.9c-3,0-5.5,2.5-5.5,5.5c0,3,2.5,5.5,5.5,5.5h63.9c3,0,5.5-2.5,5.5-5.5
			C446.3,233,443.8,230.5,440.8,230.5z"/>
	</g>
	<g>
		<path class="st1" d="M446.3,295.8c0-3-2.5-5.5-5.5-5.5h-99.5c-3,0-5.5,2.5-5.5,5.5c0,3,2.5,5.5,5.5,5.5h99.5
			C443.8,301.2,446.3,298.8,446.3,295.8z"/>
		<path class="st0" d="M440.8,312.2h-63.9c-3,0-5.5,2.5-5.5,5.5c0,3,2.5,5.5,5.5,5.5h63.9c3,0,5.5-2.5,5.5-5.5
			C446.3,314.6,443.8,312.2,440.8,312.2z"/>
	</g>
	<g>
		<path class="st1" d="M446.3,377.4c0-3-2.5-5.5-5.5-5.5h-99.5c-3,0-5.5,2.5-5.5,5.5c0,3,2.5,5.5,5.5,5.5h99.5
			C443.8,382.9,446.3,380.4,446.3,377.4z"/>
		<path class="st4" d="M440.8,393.8h-63.9c-3,0-5.5,2.5-5.5,5.5c0,3,2.5,5.5,5.5,5.5h63.9c3,0,5.5-2.5,5.5-5.5
			C446.3,396.3,443.8,393.8,440.8,393.8z"/>
	</g>
	<path class="st4" d="M291,143.4c0,6.4-5.2,11.6-11.6,11.6c-6.4,0-11.6-5.2-11.6-11.6c0-6.4,5.2-11.6,11.6-11.6
		C285.8,131.7,291,137,291,143.4z"/>
	<path class="st0" d="M291,225c0,6.4-5.2,11.6-11.6,11.6c-6.4,0-11.6-5.2-11.6-11.6c0-6.4,5.2-11.6,11.6-11.6
		C285.8,213.4,291,218.6,291,225z"/>
	<path class="st4" d="M291,307.4c0,6.4-5.2,11.6-11.6,11.6c-6.4,0-11.6-5.2-11.6-11.6c0-6.4,5.2-11.6,11.6-11.6
		C285.8,295.8,291,301,291,307.4z"/>
	<path class="st0" d="M291,388.4c0,6.4-5.2,11.6-11.6,11.6c-6.4,0-11.6-5.2-11.6-11.6c0-6.4,5.2-11.6,11.6-11.6
		C285.8,376.7,291,381.9,291,388.4z"/>
</g>
</svg>
