<?xml version="1.0" encoding="utf-8"?>
<!-- Generator: Adobe Illustrator 23.0.0, SVG Export Plug-In . SVG Version: 6.00 Build 0)  -->
<svg version="1.1" id="Layer_1" xmlns="http://www.w3.org/2000/svg" xmlns:xlink="http://www.w3.org/1999/xlink" x="0px" y="0px"
	 viewBox="0 0 602.3 127.3" style="enable-background:new 0 0 602.3 127.3;" xml:space="preserve">
<style type="text/css">
	.st0{fill:#FFFFFF;}
	.st1{font-family:'Baumans-Regular';}
	.st2{font-size:95.4697px;}
	.st3{letter-spacing:4;}
	.st4{font-family:'Roboto-Bold';}
	.st5{font-size:44px;}
	.st6{letter-spacing:15;}
	.st7{fill:url(#SVGID_1_);}
	.st8{fill:#1D1928;}
</style>
<text transform="matrix(1 0 0 1 158.4674 74.3645)"><tspan x="0" y="0" class="st0 st1 st2 st3">PARAGON</tspan><tspan x="68.3" y="48" class="st0 st4 st5 st6">SERVICES</tspan></text>
<g>
	<circle class="st0" cx="63.7" cy="63.7" r="63.7"/>
	<g>
		<linearGradient id="SVGID_1_" gradientUnits="userSpaceOnUse" x1="63.6731" y1="69.356" x2="63.6731" y2="19.7743">
			<stop  offset="0" style="stop-color:#00A099"/>
			<stop  offset="1" style="stop-color:#201845"/>
		</linearGradient>
		<path class="st7" d="M63.7,7.8C32.9,7.8,7.8,32.9,7.8,63.7c0,9.2,2.3,17.9,6.2,25.6l16.5-16.5L43,85.1L73.1,55l15.9,15.9
			l14.8-14.8L119,71.2c0.3-2.5,0.5-5,0.5-7.5C119.6,32.9,94.5,7.8,63.7,7.8z"/>
		<g id="XMLID_4_">
			<g>
				<circle class="st0" cx="40.3" cy="30.2" r="8"/>
			</g>
			<g>
			</g>
		</g>
		<path class="st8" d="M63.7,4C30.8,4,4,30.8,4,63.7c0,32.9,26.8,59.7,59.7,59.7c32.9,0,59.7-26.8,59.7-59.7
			C123.3,30.8,96.6,4,63.7,4z M103.9,56.1L89.1,70.9L73.1,55L43,85.1L30.6,72.7L14,89.2c-4-7.7-6.2-16.4-6.2-25.6
			c0-30.8,25.1-55.9,55.9-55.9c30.8,0,55.9,25.1,55.9,55.9c0,2.6-0.2,5.1-0.5,7.5L103.9,56.1z"/>
		<g id="XMLID_3_">
			<g>
				<path class="st0" d="M30.6,78.1v19.5l-6,6c-3.3-3.2-6.2-6.9-8.6-10.9L30.6,78.1z"/>
			</g>
			<g>
			</g>
		</g>
		<g id="XMLID_2_">
			<g>
				<path class="st0" d="M103.9,61.5v40.9c-10.2,10.6-24.5,17.2-40.2,17.2c-5.4,0-10.7-0.8-15.6-2.2l41-41L103.9,61.5z"/>
			</g>
			<g>
			</g>
		</g>
		<g id="XMLID_1_">
			<g>
				<path class="st0" d="M73.1,60.4v26.5L44,116c-6.1-2.3-11.8-5.7-16.7-9.9L43,90.5L73.1,60.4z"/>
			</g>
			<g>
			</g>
		</g>
	</g>
</g>
</svg>
