<?xml version="1.0" encoding="utf-8"?>
<!-- Generator: Adobe Illustrator 23.0.0, SVG Export Plug-In . SVG Version: 6.00 Build 0)  -->
<svg version="1.1" xmlns="http://www.w3.org/2000/svg" xmlns:xlink="http://www.w3.org/1999/xlink" x="0px" y="0px"
	 viewBox="0 0 469.3 469.3" style="enable-background:new 0 0 469.3 469.3;" xml:space="preserve">
<style type="text/css">
	.st0{display:none;}
	.st1{display:inline;}
	.st2{fill:#FFFFFF;}
	.st3{fill:#475059;}
	.st4{fill:#B1E1ED;}
	.st5{fill:#FFDA7B;}
	.st6{fill:#E15D34;}
	.st7{fill:#F1F2F3;}
	.st8{fill:#F5906F;}
</style>
<g id="Layer_1" class="st0">
	<g class="st1">
		<rect x="85.7" y="149.4" class="st2" width="232.9" height="232.9"/>
		<g>
			<g>
				<rect x="85.7" y="305.6" class="st3" width="161.7" height="13.7"/>
			</g>
			<g>
				<rect x="85.7" y="228" class="st3" width="161.7" height="13.7"/>
			</g>
		</g>
		<rect x="231.1" y="95.1" class="st4" width="232.9" height="341.5"/>
		<path class="st5" d="M163.8,265.9c0,43.1-35,78.1-78.1,78.1S7.6,309,7.6,265.9c0-43.1,35-78.1,78.1-78.1S163.8,222.7,163.8,265.9z
			"/>
		<g>
			<path class="st3" d="M78.1,323.6c-3.1,0-6-1.4-8-3.9l-33.4-42.3c-3.5-4.4-2.7-10.8,1.7-14.2c4.4-3.5,10.8-2.7,14.2,1.7l24.2,30.7
				l41.1-70.4c2.8-4.8,9-6.5,13.9-3.6c4.8,2.8,6.5,9,3.6,13.9l-48.6,83.2c-1.7,2.9-4.7,4.8-8.1,5C78.6,323.6,78.3,323.6,78.1,323.6z
				"/>
		</g>
		<path class="st3" d="M168.9,75.7L131,37.8c-4.3-4.3-11.2-4.3-15.5,0c-4.3,4.3-4.3,11.2,0,15.5l37.9,37.9L123.6,121l75.3,0l0-75.3
			L168.9,75.7z"/>
		<rect x="246.7" y="110.7" class="st2" width="65.3" height="65.3"/>
		<rect x="246.7" y="192.4" class="st6" width="65.3" height="65.3"/>
		<rect x="246.7" y="274" class="st2" width="65.3" height="65.3"/>
		<rect x="246.7" y="355.7" class="st6" width="65.3" height="65.3"/>
		<g>
			<path class="st3" d="M446.3,132.4c0-3-2.5-5.5-5.5-5.5h-99.5c-3,0-5.5,2.5-5.5,5.5c0,3,2.5,5.5,5.5,5.5h99.5
				C443.8,137.9,446.3,135.5,446.3,132.4z"/>
			<path class="st2" d="M440.8,148.9h-63.9c-3,0-5.5,2.5-5.5,5.5c0,3,2.5,5.5,5.5,5.5h63.9c3,0,5.5-2.5,5.5-5.5
				C446.3,151.3,443.8,148.9,440.8,148.9z"/>
		</g>
		<g>
			<path class="st3" d="M446.3,214.1c0-3-2.5-5.5-5.5-5.5h-99.5c-3,0-5.5,2.5-5.5,5.5c0,3,2.5,5.5,5.5,5.5h99.5
				C443.8,219.6,446.3,217.1,446.3,214.1z"/>
			<path class="st6" d="M440.8,230.5h-63.9c-3,0-5.5,2.5-5.5,5.5c0,3,2.5,5.5,5.5,5.5h63.9c3,0,5.5-2.5,5.5-5.5
				C446.3,233,443.8,230.5,440.8,230.5z"/>
		</g>
		<g>
			<path class="st3" d="M446.3,295.8c0-3-2.5-5.5-5.5-5.5h-99.5c-3,0-5.5,2.5-5.5,5.5c0,3,2.5,5.5,5.5,5.5h99.5
				C443.8,301.2,446.3,298.8,446.3,295.8z"/>
			<path class="st2" d="M440.8,312.2h-63.9c-3,0-5.5,2.5-5.5,5.5c0,3,2.5,5.5,5.5,5.5h63.9c3,0,5.5-2.5,5.5-5.5
				C446.3,314.6,443.8,312.2,440.8,312.2z"/>
		</g>
		<g>
			<path class="st3" d="M446.3,377.4c0-3-2.5-5.5-5.5-5.5h-99.5c-3,0-5.5,2.5-5.5,5.5c0,3,2.5,5.5,5.5,5.5h99.5
				C443.8,382.9,446.3,380.4,446.3,377.4z"/>
			<path class="st6" d="M440.8,393.8h-63.9c-3,0-5.5,2.5-5.5,5.5c0,3,2.5,5.5,5.5,5.5h63.9c3,0,5.5-2.5,5.5-5.5
				C446.3,396.3,443.8,393.8,440.8,393.8z"/>
		</g>
		<path class="st6" d="M291,143.4c0,6.4-5.2,11.6-11.6,11.6c-6.4,0-11.6-5.2-11.6-11.6c0-6.4,5.2-11.6,11.6-11.6
			C285.8,131.7,291,137,291,143.4z"/>
		<path class="st2" d="M291,225c0,6.4-5.2,11.6-11.6,11.6c-6.4,0-11.6-5.2-11.6-11.6c0-6.4,5.2-11.6,11.6-11.6
			C285.8,213.4,291,218.6,291,225z"/>
		<path class="st6" d="M291,307.4c0,6.4-5.2,11.6-11.6,11.6c-6.4,0-11.6-5.2-11.6-11.6c0-6.4,5.2-11.6,11.6-11.6
			C285.8,295.8,291,301,291,307.4z"/>
		<path class="st2" d="M291,388.4c0,6.4-5.2,11.6-11.6,11.6c-6.4,0-11.6-5.2-11.6-11.6c0-6.4,5.2-11.6,11.6-11.6
			C285.8,376.7,291,381.9,291,388.4z"/>
	</g>
</g>
<g id="Layer_2" class="st0">
	<g class="st1">
		<rect x="5.5" y="56.2" class="st2" width="365.6" height="265.9"/>
		<rect x="30.4" y="81.2" class="st5" width="315.7" height="216"/>
		<rect x="5.5" y="263.9" class="st2" width="365.6" height="58.2"/>
		<path class="st7" d="M272.3,381.1h-168c-18.3,0-33.2,14.9-33.2,33.2h234.5C305.5,396,290.7,381.1,272.3,381.1z"/>
		<rect x="132.2" y="335" class="st7" width="112.1" height="33.2"/>
		<path class="st3" d="M157.2,106.4H86.4c-17,0-30.7,13.8-30.7,30.7v70.8c0,17,13.8,30.7,30.7,30.7h70.8c17,0,30.7-13.8,30.7-30.7
			v-70.8C188,120.1,174.2,106.4,157.2,106.4z"/>
		<path class="st4" d="M153,114.3H90.7c-14.9,0-27,12.1-27,27v62.3c0,13.4,9.7,24.4,22.5,26.6c0.3-50.6,41.3-91.6,92-91.6
			c0.5,0,1,0.1,1.6,0.1C178.4,125.1,167,114.3,153,114.3z"/>
		<path class="st2" d="M178.1,138.6c-50.7,0-91.7,41-92,91.6c1.5,0.3,3,0.5,4.5,0.5H153c14.9,0,27-12.1,27-27v-62.3
			c0-0.9-0.2-1.8-0.3-2.6C179.2,138.7,178.7,138.6,178.1,138.6z"/>
		<path class="st3" d="M178.1,136c-51.9,0-94.4,42.2-94.6,94.2l5.3,0c0.2-49,40.3-88.9,89.4-88.9l1.5,0.1l-0.5-5.3
			C178.8,136,178.5,136,178.1,136z"/>
		<path class="st3" d="M86.1,218.2c-6.9,0-12.5,5.6-12.5,12.5c0,6.9,5.6,12.5,12.5,12.5c6.9,0,12.5-5.6,12.5-12.5
			C98.6,223.8,93,218.2,86.1,218.2z"/>
		<path class="st8" d="M86.1,222.4c-4.6,0-8.3,3.7-8.3,8.3c0,4.6,3.7,8.3,8.3,8.3c4.6,0,8.3-3.7,8.3-8.3
			C94.5,226.1,90.7,222.4,86.1,222.4z"/>
		<path class="st3" d="M180,126.2c-6.9,0-12.5,5.6-12.5,12.5c0,6.9,5.6,12.5,12.5,12.5c6.9,0,12.5-5.6,12.5-12.5
			C192.4,131.8,186.9,126.2,180,126.2z"/>
		<path class="st8" d="M180,130.3c-4.6,0-8.3,3.7-8.3,8.3c0,4.6,3.7,8.3,8.3,8.3c4.6,0,8.3-3.7,8.3-8.3
			C188.3,134.1,184.6,130.3,180,130.3z"/>
		<rect x="62" y="162.2" transform="matrix(0.7071 -0.7071 0.7071 0.7071 -83.6681 127.307)" class="st3" width="99.7" height="5"/>
		<path class="st3" d="M111.8,152.2c-6.9,0-12.5,5.6-12.5,12.5s5.6,12.5,12.5,12.5c6.9,0,12.5-5.6,12.5-12.5
			S118.7,152.2,111.8,152.2z"/>
		<path class="st8" d="M111.8,156.3c-4.6,0-8.3,3.7-8.3,8.3c0,4.6,3.7,8.3,8.3,8.3c4.6,0,8.3-3.7,8.3-8.3
			C120.1,160.1,116.4,156.3,111.8,156.3z"/>
		<g>
			<polygon class="st8" points="237,119.2 237,158.1 429,158.1 436.2,148 436.2,129.3 429,119.2 			"/>
			<polygon class="st4" points="457.7,119.2 429,119.2 436.2,129.3 436.2,148 429,158.1 457.7,158.1 457.7,158.1 465,148 465,129.3 
				457.7,119.2 			"/>
			<polygon class="st2" points="205.2,130.1 205.2,147.2 237,158.1 244.3,147.9 244.3,129.4 237,119.2 			"/>
			<polygon class="st3" points="205.2,147.2 205.2,130.1 180,138.6 			"/>
			<path class="st3" d="M423,146.8H254.2c-0.7,0-1.3,0.6-1.3,1.3c0,0.7,0.6,1.3,1.3,1.3H423c0.7,0,1.3-0.6,1.3-1.3
				C424.3,147.3,423.7,146.8,423,146.8z"/>
			<path class="st3" d="M423,128.1H254.2c-0.7,0-1.3,0.6-1.3,1.3c0,0.7,0.6,1.3,1.3,1.3H423c0.7,0,1.3-0.6,1.3-1.3
				C424.3,128.7,423.7,128.1,423,128.1z"/>
		</g>
		<path class="st3" d="M219.9,179.6c-4.9,0-8.8,4-8.8,8.9c0,4.9,4,8.8,8.8,8.8c4.9,0,8.8-4,8.8-8.8
			C228.7,183.6,224.8,179.6,219.9,179.6z"/>
		<path class="st3" d="M251.3,179.6c-4.9,0-8.8,4-8.8,8.9c0,4.9,4,8.8,8.8,8.8c4.9,0,8.8-4,8.8-8.8
			C260.2,183.6,256.2,179.6,251.3,179.6z"/>
		<path class="st3" d="M282.8,179.6c-4.9,0-8.9,4-8.9,8.9c0,4.9,4,8.8,8.9,8.8c4.9,0,8.8-4,8.8-8.8
			C291.6,183.6,287.7,179.6,282.8,179.6z"/>
		<rect x="211" y="211.1" class="st3" width="80.6" height="6.6"/>
		<rect x="211" y="232" class="st3" width="108.5" height="6.6"/>
	</g>
</g>
<g id="Layer_3">
	<g>
		<rect x="6.8" y="132.8" class="st2" width="410.7" height="233.5"/>
		<path class="st3" d="M387.1,67H37.3C20.4,67,6.8,80.6,6.8,97.4v35.3h410.7V97.4C417.5,80.6,403.9,67,387.1,67z"/>
		<path class="st8" d="M393.1,99.2c0,7.1-5.8,12.9-12.9,12.9c-7.1,0-12.9-5.8-12.9-12.9c0-7.1,5.8-12.9,12.9-12.9
			C387.3,86.3,393.1,92.1,393.1,99.2z"/>
		<path class="st2" d="M350.1,99.2c0,7.1-5.8,12.9-12.9,12.9c-7.1,0-12.9-5.8-12.9-12.9c0-7.1,5.8-12.9,12.9-12.9
			C344.3,86.3,350.1,92.1,350.1,99.2z"/>
		<path class="st2" d="M307.2,99.2c0,7.1-5.8,12.9-12.9,12.9c-7.1,0-12.9-5.8-12.9-12.9c0-7.1,5.8-12.9,12.9-12.9
			C301.4,86.3,307.2,92.1,307.2,99.2z"/>
		<path class="st2" d="M264.2,99.2c0,7.1-5.8,12.9-12.9,12.9c-7.1,0-12.9-5.8-12.9-12.9c0-7.1,5.8-12.9,12.9-12.9
			C258.4,86.3,264.2,92.1,264.2,99.2z"/>
		<path class="st5" d="M464.2,328c0,41.9-34,75.8-75.8,75.8c-41.9,0-75.8-33.9-75.8-75.8c0-41.9,33.9-75.8,75.8-75.8
			C430.2,252.2,464.2,286.2,464.2,328z"/>
		<g>
			<path class="st3" d="M443.7,337.1c0.5-3,0.8-6,0.8-9.1c0-3.1-0.3-6.1-0.8-9.1l-19.1-3c-0.6-1.7-1.3-3.3-2-4.9l11.4-15.6
				c-3.6-5-7.9-9.3-12.9-12.9l-15.6,11.4c-1.6-0.8-3.2-1.5-4.9-2l-3-19.1c-3-0.5-6-0.7-9.1-0.7c-3.1,0-6.1,0.3-9.1,0.7l-3,19.1
				c-1.7,0.6-3.3,1.3-4.9,2l-15.7-11.4c-5,3.6-9.3,7.9-12.9,12.9l11.4,15.6c-0.8,1.6-1.5,3.2-2,4.9l-19.1,3c-0.5,3-0.7,6-0.7,9.1
				c0,3.1,0.3,6.1,0.7,9.1l19.1,3c0.6,1.7,1.3,3.3,2,4.9l-11.4,15.6c3.6,5,7.9,9.3,12.9,12.9l15.6-11.4c1.6,0.8,3.2,1.5,4.9,2
				l3,19.1c3,0.5,6,0.7,9.1,0.7c3.1,0,6.1-0.3,9.1-0.7l3-19.1c1.7-0.6,3.3-1.3,4.9-2l15.6,11.4c5-3.6,9.3-7.9,12.9-12.9l-11.4-15.6
				c0.8-1.6,1.5-3.2,2-4.9L443.7,337.1z"/>
			<path class="st5" d="M411.5,328c0,12.8-10.4,23.1-23.1,23.1c-12.8,0-23.1-10.4-23.1-23.1c0-12.8,10.4-23.1,23.1-23.1
				C401.1,304.9,411.5,315.3,411.5,328z"/>
		</g>
		<g>
			<g>
				<path class="st4" d="M244.7,190.8c0,16.9-13.7,30.6-30.6,30.6c-16.9,0-30.6-13.7-30.6-30.6c0-16.9,13.7-30.6,30.6-30.6
					C231,160.2,244.7,173.9,244.7,190.8z"/>
			</g>
			<g>
				<path class="st4" d="M163.4,262.7c0-2.1,1.7-3.8,3.8-3.8c2.1,0,3.8,1.7,3.8,3.8v76.1h88.2v-76.1c0-2.1,1.7-3.8,3.8-3.8
					c2.1,0,3.8,1.7,3.8,3.8v76.1h27v-94.4v-3.8c0-7.5-6.1-13.5-13.5-13.5c-0.3,0-0.6,0.1-0.9,0.1V227h-2.9h-17.3H259h-37.9h-0.3
					h-5.7h-5.7h-0.3h-37.9H171h-17.3h-4.5v0.1c-7.1,0.4-12.8,6.2-12.8,13.4v3.8v94.4h27V262.7z"/>
			</g>
		</g>
		<rect x="34.6" y="320.9" class="st6" width="76.5" height="17.9"/>
		<rect x="34.6" y="288.9" class="st6" width="76.5" height="16.8"/>
		<rect x="34.6" y="258" class="st6" width="76.5" height="16.8"/>
		<rect x="34.6" y="227" class="st6" width="76.5" height="16.8"/>
		<rect x="34.6" y="160.2" class="st5" width="101.8" height="51.4"/>
		<path class="st6" d="M388.2,190.3l-44.5-25.7v17.3h-57.5c-4.7,0-8.6,3.8-8.6,8.6c0,4.7,3.8,8.6,8.6,8.6h57.5v17L388.2,190.3z"/>
	</g>
</g>
</svg>
